<svg width="280" height="270" viewBox="0 0 280 270" fill="none" xmlns="http://www.w3.org/2000/svg">
<g filter="url(#filter0_d)">
<path d="M136.978 10C136.978 4.47715 132.501 0 126.978 0H62.3556C56.8327 0 52.3556 4.47714 52.3556 9.99999V32.3111C52.3556 37.834 47.8784 42.3111 42.3556 42.3111H14C8.47715 42.3111 4 46.7883 4 52.3111V116.933C4 122.456 8.47714 126.933 14 126.933H78.6222C84.1451 126.933 88.6222 122.456 88.6222 116.933V94.6222C88.6222 89.0994 93.0994 84.6222 98.6222 84.6222H126.978C132.501 84.6222 136.978 80.1451 136.978 74.6222V10Z" fill="#C82F63"/>
</g>
<g filter="url(#filter1_d)">
<path d="M4 144.993C4 139.47 8.47714 134.993 14 134.993H78.6222C84.1451 134.993 88.6222 139.47 88.6222 144.993V167.304C88.6222 172.827 93.0994 177.304 98.6222 177.304H126.978C132.501 177.304 136.978 181.781 136.978 187.304V251.926C136.978 257.449 132.501 261.926 126.978 261.926H62.3556C56.8327 261.926 52.3556 257.449 52.3556 251.926V229.615C52.3556 224.092 47.8784 219.615 42.3556 219.615H14C8.47715 219.615 4 215.138 4 209.615V144.993Z" fill="#822659"/>
</g>
<g filter="url(#filter2_d)">
<path d="M276 144.993C276 139.47 271.523 134.993 266 134.993H201.378C195.855 134.993 191.378 139.47 191.378 144.993V167.304C191.378 172.827 186.901 177.304 181.378 177.304H153.022C147.499 177.304 143.022 181.781 143.022 187.304V251.926C143.022 257.449 147.499 261.926 153.022 261.926H217.644C223.167 261.926 227.644 257.449 227.644 251.926V229.615C227.644 224.092 232.122 219.615 237.644 219.615H266C271.523 219.615 276 215.138 276 209.615V144.993Z" fill="#E36BAE"/>
</g>
<g filter="url(#filter3_d)">
<path d="M276 116.933C276 122.456 271.523 126.933 266 126.933H201.378C195.855 126.933 191.378 122.456 191.378 116.933V94.6222C191.378 89.0994 186.901 84.6222 181.378 84.6222H153.022C147.499 84.6222 143.022 80.1451 143.022 74.6222V10C143.022 4.47715 147.499 0 153.022 0H217.644C223.167 0 227.644 4.47714 227.644 9.99999V32.3111C227.644 37.834 232.122 42.3111 237.644 42.3111H266C271.523 42.3111 276 46.7883 276 52.3111V116.933Z" fill="#EC7EAD"/>
</g>
<defs>
<filter id="filter0_d" x="0" y="0" width="140.978" height="134.933" filterUnits="userSpaceOnUse" color-interpolation-filters="sRGB">
<feFlood flood-opacity="0" result="BackgroundImageFix"/>
<feColorMatrix in="SourceAlpha" type="matrix" values="0 0 0 0 0 0 0 0 0 0 0 0 0 0 0 0 0 0 127 0"/>
<feOffset dy="4"/>
<feGaussianBlur stdDeviation="2"/>
<feColorMatrix type="matrix" values="0 0 0 0 0 0 0 0 0 0 0 0 0 0 0 0 0 0 0.25 0"/>
<feBlend mode="normal" in2="BackgroundImageFix" result="effect1_dropShadow"/>
<feBlend mode="normal" in="SourceGraphic" in2="effect1_dropShadow" result="shape"/>
</filter>
<filter id="filter1_d" x="0" y="134.993" width="140.978" height="134.933" filterUnits="userSpaceOnUse" color-interpolation-filters="sRGB">
<feFlood flood-opacity="0" result="BackgroundImageFix"/>
<feColorMatrix in="SourceAlpha" type="matrix" values="0 0 0 0 0 0 0 0 0 0 0 0 0 0 0 0 0 0 127 0"/>
<feOffset dy="4"/>
<feGaussianBlur stdDeviation="2"/>
<feColorMatrix type="matrix" values="0 0 0 0 0 0 0 0 0 0 0 0 0 0 0 0 0 0 0.25 0"/>
<feBlend mode="normal" in2="BackgroundImageFix" result="effect1_dropShadow"/>
<feBlend mode="normal" in="SourceGraphic" in2="effect1_dropShadow" result="shape"/>
</filter>
<filter id="filter2_d" x="139.022" y="134.993" width="140.978" height="134.933" filterUnits="userSpaceOnUse" color-interpolation-filters="sRGB">
<feFlood flood-opacity="0" result="BackgroundImageFix"/>
<feColorMatrix in="SourceAlpha" type="matrix" values="0 0 0 0 0 0 0 0 0 0 0 0 0 0 0 0 0 0 127 0"/>
<feOffset dy="4"/>
<feGaussianBlur stdDeviation="2"/>
<feColorMatrix type="matrix" values="0 0 0 0 0 0 0 0 0 0 0 0 0 0 0 0 0 0 0.25 0"/>
<feBlend mode="normal" in2="BackgroundImageFix" result="effect1_dropShadow"/>
<feBlend mode="normal" in="SourceGraphic" in2="effect1_dropShadow" result="shape"/>
</filter>
<filter id="filter3_d" x="139.022" y="0" width="140.978" height="134.933" filterUnits="userSpaceOnUse" color-interpolation-filters="sRGB">
<feFlood flood-opacity="0" result="BackgroundImageFix"/>
<feColorMatrix in="SourceAlpha" type="matrix" values="0 0 0 0 0 0 0 0 0 0 0 0 0 0 0 0 0 0 127 0"/>
<feOffset dy="4"/>
<feGaussianBlur stdDeviation="2"/>
<feColorMatrix type="matrix" values="0 0 0 0 0 0 0 0 0 0 0 0 0 0 0 0 0 0 0.25 0"/>
<feBlend mode="normal" in2="BackgroundImageFix" result="effect1_dropShadow"/>
<feBlend mode="normal" in="SourceGraphic" in2="effect1_dropShadow" result="shape"/>
</filter>
</defs>
</svg>
